<?xml version="1.0" encoding="UTF-8" standalone="no"?> <svg width="101" height="101" viewBox="0 0 101 101" fill="none" xmlns="http://www.w3.org/2000/svg">
<path d="M94.821 47.066C94.167 44.516 92.559 42.375 90.294 41.036C88.026 39.696 85.373 39.321 82.823 39.977C78.056 41.204 75.011 45.738 75.484 50.493L65.501 53.064C65.606 52.317 65.679 51.56 65.679 50.784C65.679 41.763 58.34 34.424 49.319 34.424C48.657 34.424 48.008 34.475 47.366 34.552L50.261 25.907C50.819 26.004 51.381 26.056 51.942 26.056C53.446 26.056 54.94 25.708 56.325 25.018C58.681 23.845 60.439 21.823 61.276 19.326C63 14.173 60.212 8.57598 55.061 6.84998C49.91 5.12598 44.311 7.91398 42.584 13.068C41.021 17.734 43.17 22.755 47.419 24.944L44.03 35.067C44 35.158 43.98 35.25 43.968 35.342C37.817 37.48 33.337 43.182 33.001 49.97L24.422 47.091C25.235 42.382 22.524 37.641 17.859 36.076C15.361 35.238 12.69 35.423 10.334 36.595C7.97601 37.767 6.21701 39.787 5.38101 42.282C3.65201 47.433 6.43601 53.032 11.587 54.764C12.623 55.111 13.676 55.276 14.713 55.276C18.348 55.276 21.772 53.245 23.477 49.939L33.157 53.187C34.325 61.071 41.117 67.146 49.321 67.146C49.978 67.146 50.623 67.096 51.259 67.021L47.621 74.412C45.632 73.782 43.505 73.789 41.496 74.473C39.005 75.32 36.992 77.088 35.829 79.45C34.665 81.812 34.49 84.485 35.338 86.977C36.185 89.47 37.953 91.483 40.317 92.646C41.691 93.323 43.171 93.664 44.659 93.664C45.728 93.664 46.802 93.488 47.845 93.133C50.337 92.284 52.35 90.517 53.511 88.157C54.676 85.793 54.85 83.119 54.002 80.628C53.317 78.618 52.026 76.929 50.314 75.737L55.027 66.161C55.038 66.138 55.043 66.114 55.053 66.09C59.512 64.414 63.041 60.854 64.677 56.376L76.232 53.4C77.05 55.319 78.44 56.928 80.27 58.009C81.808 58.917 83.523 59.382 85.263 59.382C86.087 59.382 86.917 59.278 87.737 59.067C90.289 58.41 92.43 56.8 93.768 54.534C95.104 52.267 95.479 49.615 94.821 47.066ZM45.428 14.022C46.63 10.438 50.52 8.49498 54.108 9.69598C57.691 10.896 59.629 14.79 58.43 18.375C57.849 20.112 56.626 21.518 54.988 22.334C53.349 23.149 51.492 23.279 49.755 22.697C46.169 21.495 44.229 17.604 45.428 14.022ZM50.818 86.831C50.009 88.473 48.61 89.703 46.876 90.293C45.145 90.883 43.283 90.764 41.642 89.955C39.997 89.146 38.768 87.746 38.178 86.012C37.589 84.279 37.711 82.419 38.521 80.775C39.331 79.131 40.73 77.902 42.462 77.313C43.185 77.067 43.929 76.945 44.671 76.945C45.708 76.945 46.739 77.183 47.696 77.655C47.697 77.655 47.697 77.655 47.697 77.655C49.341 78.464 50.571 79.863 51.16 81.595C51.749 83.326 51.628 85.186 50.818 86.831ZM12.541 51.92C8.95701 50.716 7.02001 46.82 8.22401 43.236C8.80601 41.501 10.03 40.096 11.669 39.281C12.633 38.802 13.671 38.56 14.716 38.56C15.45 38.56 16.188 38.679 16.904 38.919C20.485 40.121 22.422 44.014 21.221 47.598C20.017 51.183 16.127 53.123 12.541 51.92ZM49.32 64.146C41.953 64.146 35.96 58.152 35.96 50.784C35.96 43.417 41.953 37.424 49.32 37.424C56.687 37.424 62.68 43.417 62.68 50.784C62.68 58.152 56.687 64.146 49.32 64.146ZM91.183 53.008C90.252 54.584 88.762 55.704 86.987 56.161C85.216 56.617 83.372 56.357 81.795 55.426C80.218 54.495 79.099 53.005 78.643 51.231C77.701 47.57 79.913 43.826 83.573 42.884C84.144 42.737 84.722 42.664 85.297 42.664C86.507 42.664 87.7 42.988 88.77 43.62C90.345 44.551 91.463 46.04 91.917 47.812C91.917 47.812 91.918 47.813 91.918 47.814C92.373 49.587 92.113 51.432 91.183 53.008Z" fill="#231F20" stroke="black" stroke-width="2.2"/>
</svg>
