<?xml version="1.0" encoding="UTF-8" standalone="no"?> <svg xmlns="http://www.w3.org/2000/svg" viewBox="0 0 64 64"><title>brain</title><g id="_08-network" data-name="08-network"><path d="M52.09,33a6,6,0,1,0,0-2H28.057l-.016-5.4L32.348,20h9.794a4,4,0,1,0,0-2H31.855a1,1,0,0,0-.793.39l-3.031,3.942-.025-8.389L33.5,9H52.142a4,4,0,1,0,0-2H33.113a1,1,0,0,0-.669.257l-4.469,4.024a7.039,7.039,0,0,0-7.219-6.25c-2.751,0-5.662,2.01-7.079,4.886l1.794.884c.923-1.874,3.034-3.77,5.285-3.77A5,5,0,0,1,26,11.741l0,1.315,0,0,0,0,.035,11.859-.056.072.056.043L26.057,31H20.9A5.016,5.016,0,0,0,17,27.1V13a1,1,0,0,0-1-1H5.816A3,3,0,0,0,4,10.184V5.816A3,3,0,0,0,5.816,4h4.368a3,3,0,1,0,0-2H5.816A2.993,2.993,0,1,0,2,5.816v4.368A2.993,2.993,0,1,0,5.816,14H15V27.1a5,5,0,0,0,0,9.8V50H5.816A2.993,2.993,0,1,0,2,53.816v4.368A2.993,2.993,0,1,0,5.816,62h4.368a3,3,0,1,0,0-2H5.816A3,3,0,0,0,4,58.184V53.816A3,3,0,0,0,5.816,52H16a1,1,0,0,0,1-1V36.9A5.016,5.016,0,0,0,20.9,33h5.164l.011,3.936-.091.07.092.119.034,11.7L26,48.941l.11.1,0,1.366c0,3.343-3.017,6.062-6.726,6.062a6.927,6.927,0,0,1-5.813-3.012L11.9,54.544a8.95,8.95,0,0,0,7.492,3.924c4.658,0,8.464-3.392,8.7-7.645l4.353,3.92a1,1,0,0,0,.669.257H53.142a4,4,0,1,0,0-2H33.5l-5.39-4.853-.025-8.412,2.98,3.875a1,1,0,0,0,.793.39H42.142a4,4,0,1,0,0-2H32.348l-4.275-5.558L28.063,33ZM58,28a4,4,0,1,1-4,4A4,4,0,0,1,58,28ZM46,17a2,2,0,1,1-2,2A2,2,0,0,1,46,17ZM56,6a2,2,0,1,1-2,2A2,2,0,0,1,56,6ZM13,2a1,1,0,1,1-1,1A1,1,0,0,1,13,2ZM3,2A1,1,0,1,1,2,3,1,1,0,0,1,3,2ZM3,14a1,1,0,1,1,1-1A1,1,0,0,1,3,14ZM3,62a1,1,0,1,1,1-1A1,1,0,0,1,3,62Zm10-2a1,1,0,1,1-1,1A1,1,0,0,1,13,60ZM3,52a1,1,0,1,1,1-1A1,1,0,0,1,3,52ZM16,35a3,3,0,1,1,3-3A3,3,0,0,1,16,35ZM57,52a2,2,0,1,1-2,2A2,2,0,0,1,57,52ZM46,41a2,2,0,1,1-2,2A2,2,0,0,1,46,41Z"/><path d="M4.508,24.386A6.492,6.492,0,0,0,1.7,26.725,7.23,7.23,0,0,0,.79,32.539a7.394,7.394,0,0,0,3.774,4.495,1.418,1.418,0,0,1,.707.828.972.972,0,0,1-.083.772,6.838,6.838,0,0,0-.917,3.408,7.3,7.3,0,0,0,5.453,6.907l.565-1.918a5.323,5.323,0,0,1-4.018-4.989,4.761,4.761,0,0,1,.65-2.409A2.961,2.961,0,0,0,7.189,37.3a3.4,3.4,0,0,0-1.71-2.041,5.394,5.394,0,0,1-2.765-3.262,5.284,5.284,0,0,1,.7-4.235,4.459,4.459,0,0,1,1.974-1.577,3.205,3.205,0,0,0,1.443-4.39,4.765,4.765,0,0,1-.56-2.246A4.37,4.37,0,0,1,7.66,16.694L6.22,15.305a6.192,6.192,0,0,0-1.949,4.241,6.75,6.75,0,0,0,.791,3.179,1.2,1.2,0,0,1,.084.938A1.225,1.225,0,0,1,4.508,24.386Z"/></g></svg>